<mxfile host="app.diagrams.net" modified="2022-11-01T11:08:17.849Z" agent="5.0 (Windows)" etag="FwQ0iDqHwQelKR43uZIR" version="20.5.1" type="github">
  <diagram id="lPzttRUac0EdDahc5sDr" name="Page-1">
    <mxGraphModel dx="862" dy="432" grid="1" gridSize="10" guides="1" tooltips="1" connect="1" arrows="1" fold="1" page="1" pageScale="1" pageWidth="850" pageHeight="1100" math="0" shadow="0">
      <root>
        <mxCell id="0" />
        <mxCell id="1" parent="0" />
        <mxCell id="Sf67TP1qRJDmqfovEGl8-1" value="Web Application / Server" style="whiteSpace=wrap;html=1;aspect=fixed;" vertex="1" parent="1">
          <mxGeometry x="200" y="40" width="160" height="160" as="geometry" />
        </mxCell>
        <mxCell id="Sf67TP1qRJDmqfovEGl8-2" value="" style="shape=cylinder3;whiteSpace=wrap;html=1;boundedLbl=1;backgroundOutline=1;size=15;" vertex="1" parent="1">
          <mxGeometry x="310" y="50" width="30" height="50" as="geometry" />
        </mxCell>
        <mxCell id="Sf67TP1qRJDmqfovEGl8-3" value="Mobile / Web Client" style="whiteSpace=wrap;html=1;aspect=fixed;" vertex="1" parent="1">
          <mxGeometry x="200" y="290" width="160" height="160" as="geometry" />
        </mxCell>
        <mxCell id="Sf67TP1qRJDmqfovEGl8-4" value="" style="aspect=fixed;html=1;points=[];align=center;image;fontSize=12;image=img/lib/azure2/networking/DNS_Zones.svg;" vertex="1" parent="1">
          <mxGeometry x="640" y="338" width="64" height="64" as="geometry" />
        </mxCell>
        <mxCell id="Sf67TP1qRJDmqfovEGl8-5" value="" style="shape=flexArrow;endArrow=classic;startArrow=classic;html=1;rounded=0;" edge="1" parent="1">
          <mxGeometry width="100" height="100" relative="1" as="geometry">
            <mxPoint x="370" y="370" as="sourcePoint" />
            <mxPoint x="630" y="370" as="targetPoint" />
          </mxGeometry>
        </mxCell>
        <mxCell id="Sf67TP1qRJDmqfovEGl8-6" value="example.com" style="text;html=1;strokeColor=none;fillColor=none;align=center;verticalAlign=middle;whiteSpace=wrap;rounded=0;" vertex="1" parent="1">
          <mxGeometry x="480" y="330" width="60" height="30" as="geometry" />
        </mxCell>
        <mxCell id="Sf67TP1qRJDmqfovEGl8-7" value="IP Address" style="text;html=1;align=center;verticalAlign=middle;resizable=0;points=[];autosize=1;strokeColor=none;fillColor=none;" vertex="1" parent="1">
          <mxGeometry x="470" y="385" width="80" height="30" as="geometry" />
        </mxCell>
      </root>
    </mxGraphModel>
  </diagram>
</mxfile>
